<svg id="Layer_1" data-name="Layer 1" xmlns="http://www.w3.org/2000/svg" viewBox="0 0 268.69 261.79"><path d="M213,126.23A78.38,78.38,0,0,0,139.27,53V8.48h-8.91V53a78.39,78.39,0,0,0-73.77,73.25h-44v8.92H56.52a78.39,78.39,0,0,0,73.84,74.35v43.4h8.91V209.5a78.4,78.4,0,0,0,73.84-74.35H257v-8.92Zm-82.67,74.33a69.43,69.43,0,0,1-64.91-65.41H99A36.07,36.07,0,0,0,130.36,167Zm0-42.54a27.14,27.14,0,0,1-22.42-22.87h22.42Zm0-31.79H108.13a27.11,27.11,0,0,1,22.23-21.78Zm0-30.78A36.06,36.06,0,0,0,99.1,126.23H65.53a69.43,69.43,0,0,1,64.83-64.32Zm8.91-33.54a69.45,69.45,0,0,1,64.83,64.32H170.53a36.08,36.08,0,0,0-31.26-30.78Zm0,42.54a27.11,27.11,0,0,1,22.23,21.78H139.27Zm0,30.7h22.42A27.14,27.14,0,0,1,139.27,158Zm44.67,45.22a69.22,69.22,0,0,1-44.67,20.19V167a36.07,36.07,0,0,0,31.4-31.87h33.51A69.27,69.27,0,0,1,183.94,180.37Z"/></svg>