<?xml version="1.0" encoding="utf-8"?>
<!-- Generator: Adobe Illustrator 26.3.1, SVG Export Plug-In . SVG Version: 6.00 Build 0)  -->
<svg version="1.1" id="Layer_1" xmlns="http://www.w3.org/2000/svg" xmlns:xlink="http://www.w3.org/1999/xlink" x="0px" y="0px"
	 viewBox="0 0 1366 768" style="enable-background:new 0 0 1366 768;" xml:space="preserve">
<style type="text/css">
	.st0{fill:#404041;}
</style>
<g>
	<g>
		<path class="st0" d="M614.13,312.32c0,3.07-0.61,6.27-0.61,9.46c-1.23,55.29,18.19,101.37,62.79,135.17
			c51.24,38.83,134.43,28.02,163.55-45.96c21.26-53.82,11.92-104.45-22.98-150.03c-26.42-34.53-62.79-47.19-105.18-41.41
			c-30.23,4.05-54.56,20.03-75.69,41.29c-2.83,2.95-5.28,6.14-8.48,8.72c-4.67,3.81-12.66,3.69-16.1,0
			c-4.3-4.3-2.58-9.09-0.49-13.64c0.98-2.09,2.46-3.81,3.93-5.53c55.29-68.93,155.69-78.64,219.34-7.99
			c37.72,41.9,47.55,92.16,37.97,146.35c-15.85,89.58-111.2,143.77-194.39,95.72c-13.15-7.62-25.8-16.1-39.69-24.94
			c3.69,19.29,9.46,34.77,14.5,46.08c5.53,12.04,11.18,24.82,23.47,38.46c3.19,3.56,6.51,6.76,9.58,9.58
			c6.76,7.5,16.59,14.87,14.75,17.57c-2.09,3.19-17.69-2.95-30.47-9.83c-29.98-15.97-47.92-37.23-50.87-40.67
			c-11.06-13.39-17.82-24.58-22.36-34.65c-3.44-7.74-8.36-17.2-12.29-28.63c-0.12-0.25-0.25-0.37-0.25-0.61
			c-2.33-7.13-4.3-14.87-5.41-23.47c-0.25-1.6-0.25-2.46-0.61-6.88c-0.12-0.74-0.12-1.35-0.25-2.09c-0.12-1.72-0.25-3.44-0.49-5.04
			c-0.12-1.35-0.25-2.83-0.37-4.18c-2.58-34.41,1.97-70.04,12.04-106.53c2.46-8.48,6.88-11.06,14.99-9.71
			C611.55,300.27,614.26,303.84,614.13,312.32z"/>
		<path class="st0" d="M1025.9,687.95v2.09c-0.12,29.86-0.98,30.72-30.72,30.84c-74.83,0-149.79-0.37-224.74,0.25
			c-41.29,0.25-76.31-13.52-106.66-41.41c-31.95-29.24-57.14-63.28-75.2-102.48c-2.95-6.27-5.16-13.03-7.25-19.66
			c-0.74-2.46-0.12-5.41-0.12-9.71c22.86,11.67,43.62,23.1,65.12,32.81c135.78,62.05,275.49-35.76,286.8-176.82
			c6.76-85.15-15.85-161.58-80.36-220.69c-83.8-76.92-194.02-76.92-274.75-20.64c-0.25,0.25-0.74,0.49-1.11,0.74
			c-1.35,0.98-3.32,2.33-5.77,4.06c-0.86,0.61-1.72,1.23-2.7,1.97c-13.03,10.08-25.19,21.63-36.13,34.53
			c-1.6,1.84-3.07,3.69-4.55,5.65c0,0.12-0.12,0.25-0.25,0.37c-0.49,0.61-1.11,1.47-1.97,2.46c-3.93,4.92-7.62,10.08-11.06,15.36
			c-1.84,2.95-3.93,5.9-5.16,9.22c-0.49,1.35-0.98,2.83-1.35,4.18c-8.23,15.85-16.47,36.62-21.01,61.32
			c-0.74,4.18-1.35,8.48-1.84,12.66c-0.74,1.97-1.35,4.18-1.84,6.64c-23.22,132.58-3.69,253.74,94.49,354.01
			c3.32,3.44,6.88,7.25,8.85,11.55c7.37,15.24-0.37,30.23-17.08,33.18c-4.67,0.86-9.71,0.61-14.62,0.61h-186.9
			c-3.44,0-7,0.12-10.44-0.25c-12.53-1.23-15.97-4.55-17.08-16.71c-0.49-4.92-0.37-9.83-0.37-14.75
			c0.25-208.52,0.37-417.05,0.61-625.57c0-2.09-0.12-4.18,0-6.27C341.22,35.6,342.57,34,365.18,34c98.06-0.12,195.99,0,294.05,0
			c111.33,0,222.53,0.12,333.86,0.25c6.39,0,12.66,0,18.92,0.25c8.36,0.37,12.78,4.79,13.15,13.15c0.25,5.65,0.37,11.18,0.37,16.83
			C1025.65,272.26,1025.77,480.17,1025.9,687.95z"/>
	</g>
</g>
</svg>
