<svg id="Layer_1" data-name="Layer 1" xmlns="http://www.w3.org/2000/svg" viewBox="0 0 216.53 216.49"><defs><style>.cls-1{fill:#1d1d1b;}</style></defs><path class="cls-1" d="M179.7,27c-.54-.54-1.18-1.09-1.77-1.57a108.29,108.29,0,0,0-140.51.93l71.46,71.46Z"/><path class="cls-1" d="M27.55,36.12c-.73.74-1.42,1.62-2.16,2.46A108.11,108.11,0,0,0,27,179.67l72.05-72Zm.66,13.27,58.24,58.24-58.7,58.7C2.73,131.71,2.82,83.84,28.21,49.39Z"/><path class="cls-1" d="M36.84,189.49c.54.54,1.17,1.08,1.76,1.57A108.16,108.16,0,0,0,180.38,189l-71.5-71.5Z"/><path class="cls-1" d="M189.52,36.81,118.7,107.63,190.11,179l1-1.13A108.1,108.1,0,0,0,189.52,36.81Zm-.18,128.85-58-58,57.48-57.48A99.94,99.94,0,0,1,189.34,165.66Z"/></svg>